<?xml version="1.0" encoding="UTF-8"?>
<svg version="1.1" xmlns="http://www.w3.org/2000/svg" width="998" height="286">
<path d="M0 0 C1.10859375 0.00322266 2.2171875 0.00644531 3.359375 0.00976562 C4.50148438 0.01814453 5.64359375 0.02652344 6.8203125 0.03515625 C8.56828125 0.04192383 8.56828125 0.04192383 10.3515625 0.04882812 C13.21619895 0.06056844 16.08072883 0.07699055 18.9453125 0.09765625 C18.6565625 1.10441406 18.3678125 2.11117187 18.0703125 3.1484375 C12.82352502 22.55010959 13.18112855 40.73255969 22.94140625 58.70703125 C31.40370896 73.02531342 43.54750152 82.10961865 58.9453125 88.09765625 C59.68136719 88.20207031 60.41742188 88.30648437 61.17578125 88.4140625 C62.9453125 89.09765625 62.9453125 89.09765625 64.18359375 91.46875 C64.53808594 92.48066406 64.89257812 93.49257812 65.2578125 94.53515625 C69.95714309 106.52556945 76.50164569 114.16990569 88.25390625 119.63671875 C91.13231312 120.85046393 94.0185691 122.00641344 96.9453125 123.09765625 C96.3759769 128.26978951 94.71650766 132.21829941 92.3828125 136.78515625 C92.02638672 137.48777588 91.66996094 138.19039551 91.30273438 138.91430664 C88.08482758 145.10057693 84.33686768 150.67534156 79.9453125 156.09765625 C79.34332031 156.86335937 78.74132812 157.6290625 78.12109375 158.41796875 C63.09559688 176.49896498 40.43993838 187.0744865 17.375 189.8203125 C-12.8266842 192.26258992 -37.37633725 182.56383559 -60.06640625 163.3984375 C-76.00502216 148.64871601 -86.9481345 125.34739242 -88.19335938 103.68530273 C-88.86457954 85.69561513 -87.06219832 69.41616956 -79.0546875 53.09765625 C-78.60222656 52.16566406 -78.14976563 51.23367187 -77.68359375 50.2734375 C-74.21922295 43.54185522 -69.92089928 37.87012609 -65.0546875 32.09765625 C-64.41917969 31.2675 -63.78367187 30.43734375 -63.12890625 29.58203125 C-56.66747076 21.84291078 -47.68922108 16.1439769 -39.0546875 11.09765625 C-38.29027344 10.64648438 -37.52585938 10.1953125 -36.73828125 9.73046875 C-25.89260229 3.8213171 -12.35719935 -0.0636969 0 0 Z " fill="#6BBBAE" transform="translate(159.0546875,60.90234375)"/>
<path d="M0 0 C11.49733949 9.63290606 18.9108672 23.23104741 20.5625 38.1875 C21.25618724 47.05678688 20.20844523 55.67920823 17.5625 64.1875 C16.5725 64.6825 16.5725 64.6825 15.5625 65.1875 C13.38895625 64.13978758 11.39445725 62.87260934 9.33984375 61.609375 C2.93242187 58.32906337 -2.33510525 56.86959024 -9.52709961 57.53613281 C-19.85066787 58.45211031 -19.85066787 58.45211031 -24.24609375 54.94921875 C-26.09736478 52.33026468 -27.75058609 49.67243035 -29.34912109 46.89404297 C-40.39846813 29.56902373 -62.48960282 18.77470045 -81.4375 13.1875 C-81.4375 8.92353124 -79.48196892 7.43425068 -76.67578125 4.375 C-55.52321045 -16.29766955 -23.50058328 -17.4747927 0 0 Z " fill="#1C1C1C" transform="translate(274.4375,42.8125)"/>
<path d="M0 0 C21.79425738 2.84447109 41.19193747 17.64510045 54.79296875 34.1796875 C58 38.50962885 58 38.50962885 58 41 C56.3125 42.19140625 56.3125 42.19140625 54 43.5625 C43.69405761 50.28728945 38.21821652 59.11552023 35.25390625 70.98828125 C34.77544146 73.3212096 34.34913394 75.64464865 34 78 C26.54445557 76.10910105 21.06872232 72.64506657 15 68 C13.948125 67.236875 12.89625 66.47375 11.8125 65.6875 C2.13627039 56.44132504 -4.64859397 43.00677385 -5.3359375 29.5546875 C-5.36517523 27.99501135 -5.37772662 26.43494779 -5.375 24.875 C-5.37556396 24.05402832 -5.37612793 23.23305664 -5.37670898 22.38720703 C-5.25920258 15.77987971 -4.88921721 4.88921721 0 0 Z " fill="#999999" transform="translate(187,63)"/>
<path d="M0 0 C44.37684211 0 44.37684211 0 55 9.85546875 C62.92172073 18.38782212 64.3377926 27.09608161 64.20703125 38.49609375 C63.68873114 47.26807862 60.21055826 53.80111573 54 60 C37.90662289 72.39406056 20.39846078 69 0 69 C0 46.23 0 23.46 0 0 Z M16 15 C16 27.87 16 40.74 16 54 C29.54470216 54.79349009 29.54470216 54.79349009 41 50 C45.6417564 45.2392242 47.2978657 41.24312252 47.375 34.625 C47.24433874 27.32430214 45.35732759 24.30494253 40.1875 19.25 C32.21539971 13.62263509 26.33495675 15 16 15 Z " fill="#1C1C1C" transform="translate(396,77)"/>
<path d="M0 0 C40.74551435 0 40.74551435 0 48.3359375 6.3203125 C52.82943401 10.85600147 53.21653224 15.30042302 53.5 21.4375 C53.33035372 27.59424639 52.23257338 31.51237126 48 36 C45.95703125 37.43554688 45.95703125 37.43554688 43.8125 38.71875 C43.09707031 39.15123047 42.38164062 39.58371094 41.64453125 40.02929688 C41.10183594 40.34962891 40.55914062 40.66996094 40 41 C40.4846875 41.81267334 40.969375 42.62534668 41.46875 43.46264648 C43.25956028 46.46763475 45.048415 49.47376868 46.8359375 52.48071289 C47.61119264 53.78391548 48.38723299 55.08665128 49.1640625 56.38891602 C50.27809256 58.25676361 51.38932273 60.12625106 52.5 61.99609375 C53.1703125 63.12200928 53.840625 64.2479248 54.53125 65.40795898 C56 68 56 68 56 69 C49.4 69 42.8 69 36 69 C35.31292969 67.61425781 34.62585938 66.22851562 33.91796875 64.80078125 C33.00791956 62.97130091 32.09775737 61.14187677 31.1875 59.3125 C30.50977539 57.94448242 30.50977539 57.94448242 29.81835938 56.54882812 C28.02785159 52.95474316 26.25308319 49.41891501 24.17578125 45.98046875 C23 44 23 44 23 42 C20.69 42 18.38 42 16 42 C16 50.91 16 59.82 16 69 C10.72 69 5.44 69 0 69 C0 46.23 0 23.46 0 0 Z M16 14 C16 18.62 16 23.24 16 28 C18.58396679 28.08112454 21.16537568 28.14054748 23.75 28.1875 C24.47960937 28.21263672 25.20921875 28.23777344 25.9609375 28.26367188 C29.23372901 28.30830085 31.56510871 28.24022567 34.4609375 26.640625 C36.51455598 24.45148855 36.85457818 22.98114741 37 20 C36.21974306 17.51736428 35.54363418 16.37615764 33.40234375 14.89453125 C30.03315551 13.63998799 26.78994601 13.788007 23.25 13.875 C22.20392578 13.88853516 22.20392578 13.88853516 21.13671875 13.90234375 C19.42433042 13.92580112 17.71211996 13.96166896 16 14 Z " fill="#1C1C1C" transform="translate(467,77)"/>
<path d="M0 0 C4.62 0 9.24 0 14 0 C19.72783246 12.4383179 25.31507479 24.93132747 30.75 37.5 C31.01759125 38.11877014 31.2851825 38.73754028 31.56088257 39.37506104 C32.86008632 42.38126129 34.15580996 45.38889933 35.44726562 48.3984375 C36.52952583 50.90873664 37.62084252 53.41330681 38.72460938 55.9140625 C39.00379211 56.55170532 39.28297485 57.18934814 39.57061768 57.84631348 C40.34611787 59.6171207 41.12652409 61.38577704 41.90722656 63.15429688 C43 66 43 66 43 69 C37.06 69 31.12 69 25 69 C20 57.25 20 57.25 20 55 C11.42 55 2.84 55 -6 55 C-6.99 57.97 -7.98 60.94 -9 64 C-9.66 65.65 -10.32 67.3 -11 69 C-16.94 69 -22.88 69 -29 69 C-26.61772942 61.1437621 -23.34006758 53.74776879 -19.98928833 46.27069092 C-18.30511274 42.51144184 -16.63478046 38.7460601 -14.96484375 34.98046875 C-14.6298436 34.22554138 -14.29484344 33.47061401 -13.94969177 32.69281006 C-9.15231624 21.85804795 -4.57216815 10.93137916 0 0 Z M6 23 C4.9936345 25.43504509 3.99473587 27.87270864 3 30.3125 C2.71382813 31.00279297 2.42765625 31.69308594 2.1328125 32.40429688 C0.91089256 35.41545674 0 37.71886984 0 41 C4.62 41 9.24 41 14 41 C12.02989474 34.79416842 9.74844552 28.90148454 7 23 C6.67 23 6.34 23 6 23 Z " fill="#1C1C1C" transform="translate(347,77)"/>
<path d="M0 0 C2.31 0 4.62 0 7 0 C7 13.2 7 26.4 7 40 C13.86612807 39.96041531 13.86612807 39.96041531 20.73217773 39.90991211 C21.58239502 39.90741455 22.4326123 39.90491699 23.30859375 39.90234375 C24.18314209 39.89710693 25.05769043 39.89187012 25.95874023 39.88647461 C28 40 28 40 29 41 C34.94 27.47 40.88 13.94 47 0 C49.31 0 51.62 0 54 0 C65.80665602 26.32852281 65.80665602 26.32852281 70.25 37 C70.53689697 37.6798999 70.82379395 38.3597998 71.11938477 39.06030273 C72.28040367 41.88622055 73 43.91031854 73 47 C70.36 47 67.72 47 65 47 C64.32645501 45.56570999 63.66140299 44.12742943 63 42.6875 C62.62875 41.88699219 62.2575 41.08648437 61.875 40.26171875 C61 38 61 38 61 35 C54.07 35 47.14 35 40 35 C39.01 37.97 38.02 40.94 37 44 C36.67 44.99 36.34 45.98 36 47 C24.12 47 12.24 47 0 47 C0 31.49 0 15.98 0 0 Z M50 11 C49.20192802 12.68448018 48.41187699 14.37276127 47.625 16.0625 C47.18414063 17.00222656 46.74328125 17.94195312 46.2890625 18.91015625 C44.68611615 22.58328389 44.68611615 22.58328389 43 29 C47.95 29 52.9 29 58 29 C55.69 23.06 53.38 17.12 51 11 C50.67 11 50.34 11 50 11 Z " fill="#999999" transform="translate(782,160)"/>
<path d="M0 0 C9 0 9 0 12.13305664 3.12109375 C13.09070085 4.53883465 14.01494719 5.97953141 14.91015625 7.4375 C15.40793076 8.19216553 15.90570526 8.94683105 16.41856384 9.72436523 C17.99666298 12.13149329 19.52933927 14.56406077 21.0625 17 C22.12668107 18.6398909 23.19370927 20.27793795 24.26367188 21.9140625 C26.88193278 25.91965637 29.43685036 29.9567217 32 34 C32.33 22.78 32.66 11.56 33 0 C35.31 0 37.62 0 40 0 C40 15.51 40 31.02 40 47 C31 47 31 47 28.51293945 44.84790039 C27.88605225 43.85781982 27.25916504 42.86773926 26.61328125 41.84765625 C25.90236328 40.76033203 25.19144531 39.67300781 24.45898438 38.55273438 C23.74264365 37.38984359 23.02715316 36.22642864 22.3125 35.0625 C21.58820028 33.93237202 20.86100667 32.80409323 20.13085938 31.67773438 C18.77251251 29.56653893 17.42688637 27.4470596 16.09887695 25.31665039 C13.4713328 21.16459882 10.72557802 17.08836703 8 13 C7.67 24.22 7.34 35.44 7 47 C4.69 47 2.38 47 0 47 C0 31.49 0 15.98 0 0 Z " fill="#999999" transform="translate(620,160)"/>
<path d="M0 0 C9 0 9 0 11.34765625 1.9777832 C12.19650391 3.34422974 12.19650391 3.34422974 13.0625 4.73828125 C13.7121875 5.7432666 14.361875 6.74825195 15.03125 7.78369141 C15.6809375 8.84507324 16.330625 9.90645508 17 11 C18.35072054 13.03744505 19.7048735 15.07261888 21.0625 17.10546875 C22.37856386 19.13050081 23.69044431 21.15825314 25 23.1875 C27.31 26.755625 29.62 30.32375 32 34 C32.33 22.78 32.66 11.56 33 0 C35.31 0 37.62 0 40 0 C40 15.51 40 31.02 40 47 C31 47 31 47 28.62060547 44.95556641 C28.04197754 44.01374512 27.46334961 43.07192383 26.8671875 42.1015625 C26.20589844 41.06386719 25.54460937 40.02617187 24.86328125 38.95703125 C24.20714844 37.85746094 23.55101562 36.75789063 22.875 35.625 C21.54000375 33.49159822 20.20407469 31.35877984 18.8671875 29.2265625 C18.29081543 28.27346191 17.71444336 27.32036133 17.12060547 26.33837891 C14.23260223 21.79191836 11.08876775 17.41252536 8 13 C7.67 24.22 7.34 35.44 7 47 C4.69 47 2.38 47 0 47 C0 31.49 0 15.98 0 0 Z " fill="#999999" transform="translate(319,160)"/>
<path d="M0 0 C9 0 9 0 11.34765625 1.9777832 C12.19650391 3.34422974 12.19650391 3.34422974 13.0625 4.73828125 C13.7121875 5.7432666 14.361875 6.74825195 15.03125 7.78369141 C15.6809375 8.84507324 16.330625 9.90645508 17 11 C18.35072054 13.03744505 19.7048735 15.07261888 21.0625 17.10546875 C22.37856386 19.13050081 23.69044431 21.15825314 25 23.1875 C27.31 26.755625 29.62 30.32375 32 34 C32.33 22.78 32.66 11.56 33 0 C35.31 0 37.62 0 40 0 C40 15.51 40 31.02 40 47 C32 47 32 47 29.77734375 45.18359375 C29.17019531 44.27738281 28.56304688 43.37117188 27.9375 42.4375 C27.2053125 41.36886719 26.473125 40.30023438 25.71875 39.19921875 C24.81098798 37.80045927 23.90495887 36.40057467 23 35 C21.69881979 33.02674793 20.39665787 31.054143 19.09375 29.08203125 C15.35529796 23.41297994 11.68287903 17.70680354 8 12 C7.67 23.55 7.34 35.1 7 47 C4.69 47 2.38 47 0 47 C0 31.49 0 15.98 0 0 Z " fill="#999999" transform="translate(860,160)"/>
<path d="M0 0 C5.7695121 4.43808623 8.4770866 9.72697035 9.4296875 16.8984375 C9.80581695 25.31185936 8.16544204 31.93005543 2.62890625 38.40234375 C-3.00658008 43.6055188 -9.89615743 45.40200726 -17.3984375 45.125 C-23.67933311 44.29007732 -29.10277294 42.20376559 -33.421875 37.46875 C-39.04298573 29.90493245 -40.1404473 23.14098922 -38.984375 13.78125 C-36.7933858 6.376518 -32.73141193 1.47790242 -25.984375 -2.21875 C-17.08061414 -5.71665605 -8.13868537 -4.99856267 0 0 Z M-28.296875 8.90625 C-31.11872039 13.71383844 -32.37717395 18.63885838 -31.6796875 24.21875 C-30.09195253 30.02084321 -27.0308535 33.56985459 -21.984375 36.78125 C-17.00358117 38.44151461 -12.68163871 38.38028425 -7.796875 36.65625 C-2.60712215 33.19641477 -0.0091856 29.95642091 1.515625 23.96875 C2.33636159 18.6698196 1.72677636 14.43909692 -0.984375 9.78125 C-5.05273954 5.22468172 -8.54528611 2.98450741 -14.734375 2.46875 C-20.4976353 2.55350383 -24.07813152 5.0295668 -28.296875 8.90625 Z " fill="#999999" transform="translate(404.984375,163.21875)"/>
<path d="M0 0 C0.66 0 1.32 0 2 0 C6.46090493 9.93746232 7.80162279 19.28323258 4.4375 29.8125 C0.61718083 39.03488451 -7.03678168 46.42763131 -16.1875 50.375 C-18.90716766 50.97937059 -21.22880831 51.04657465 -24 51 C-23.9278125 50.42636719 -23.855625 49.85273438 -23.78125 49.26171875 C-23.26671539 44.55229783 -22.9436558 40.08123838 -23.35546875 35.35546875 C-24.31228192 22.61726397 -24.31228192 22.61726397 -20.61328125 18.05859375 C-17.5058484 15.81671936 -14.31225296 13.9216743 -11 12 C-8.53330081 9.89951423 -8.53330081 9.89951423 -6.4375 7.6875 C-5.83808594 7.07261719 -5.23867188 6.45773438 -4.62109375 5.82421875 C-2.93283663 3.98996874 -2.93283663 3.98996874 -1.41015625 1.76953125 C-0.94480469 1.18558594 -0.47945313 0.60164063 0 0 Z " fill="#999999" transform="translate(292,124)"/>
<path d="M0 0 C26.22466216 0 26.22466216 0 33.375 5.1875 C39.78664575 12.05712044 40.7203085 18.02567756 40.44921875 27.4296875 C39.6255932 33.97572015 36.73314493 37.18624368 32.3125 41.8125 C21.98112887 48.63510357 12.98184115 47 0 47 C0 31.49 0 15.98 0 0 Z M7 7 C7 17.89 7 28.78 7 40 C19.07208666 40.27160679 19.07208666 40.27160679 29 35 C31.90062208 31.40803795 32.8532488 28.02725842 33.5 23.5 C32.63977427 17.47841986 30.72959797 13.37661879 25.9375 9.5625 C18.87356818 5.80508946 16.9174126 7 7 7 Z " fill="#999999" transform="translate(909,160)"/>
<path d="M0 0 C23.5483871 0 23.5483871 0 28.375 3.9375 C31.69469407 8.15095785 31.48832282 12.87261036 31 18 C29.13695188 22.6576203 26.1215575 24.33606649 22 27 C22.33322266 27.5347998 22.66644531 28.06959961 23.00976562 28.62060547 C24.51112495 31.03590415 26.00563105 33.45537067 27.5 35.875 C28.02464844 36.71675781 28.54929687 37.55851562 29.08984375 38.42578125 C29.58613281 39.23144531 30.08242188 40.03710938 30.59375 40.8671875 C31.05458984 41.61081543 31.51542969 42.35444336 31.99023438 43.12060547 C33 45 33 45 33 47 C29.83526016 47.59363443 27.1428217 47.7845679 24 47 C21.37714888 44.2397069 19.91698848 40.98949143 18.3125 37.5625 C17.45299465 35.78346442 16.57474781 34.0133312 15.67578125 32.25390625 C15.30364502 31.46314697 14.93150879 30.6723877 14.5480957 29.85766602 C12.74851891 27.28744777 12.74851891 27.28744777 7 27 C7 33.6 7 40.2 7 47 C4.69 47 2.38 47 0 47 C0 31.49 0 15.98 0 0 Z M7 7 C7 11.29 7 15.58 7 20 C9.84625 20.0928125 9.84625 20.0928125 12.75 20.1875 C13.81734375 20.22230469 14.8846875 20.25710937 15.984375 20.29296875 C19.33169073 19.96777616 20.60702441 19.30330906 23 17 C24.08568503 15.15732132 24.08568503 15.15732132 24 13 C22.23136411 9.30240822 22.23136411 9.30240822 19 7 C16.95944995 6.92934383 14.91665743 6.91578024 12.875 6.9375 C10.93625 6.958125 8.9975 6.97875 7 7 Z " fill="#999999" transform="translate(581,160)"/>
<path d="M0 0 C23.5483871 0 23.5483871 0 28.375 3.9375 C31.69469407 8.15095785 31.48832282 12.87261036 31 18 C29.13695188 22.6576203 26.1215575 24.33606649 22 27 C22.33322266 27.5347998 22.66644531 28.06959961 23.00976562 28.62060547 C24.51112495 31.03590415 26.00563105 33.45537067 27.5 35.875 C28.02464844 36.71675781 28.54929687 37.55851562 29.08984375 38.42578125 C29.58613281 39.23144531 30.08242188 40.03710938 30.59375 40.8671875 C31.05458984 41.61081543 31.51542969 42.35444336 31.99023438 43.12060547 C33 45 33 45 33 47 C29.83526016 47.59363443 27.1428217 47.7845679 24 47 C21.37714888 44.2397069 19.91698848 40.98949143 18.3125 37.5625 C17.45299465 35.78346442 16.57474781 34.0133312 15.67578125 32.25390625 C15.30364502 31.46314697 14.93150879 30.6723877 14.5480957 29.85766602 C12.74851891 27.28744777 12.74851891 27.28744777 7 27 C7 33.6 7 40.2 7 47 C4.69 47 2.38 47 0 47 C0 31.49 0 15.98 0 0 Z M7 7 C7 11.29 7 15.58 7 20 C13.53757465 20.4460995 13.53757465 20.4460995 20 20 C22.50127955 17.77019485 22.50127955 17.77019485 24 15 C24.16977494 12.34872531 24.16977494 12.34872531 23 10 C20.61880984 7.66888159 19.3386784 7.03290269 15.984375 6.70703125 C14.38335938 6.75923828 14.38335938 6.75923828 12.75 6.8125 C10.8525 6.874375 8.955 6.93625 7 7 Z " fill="#999999" transform="translate(704,160)"/>
<path d="M0 0 C23.5483871 0 23.5483871 0 28.375 3.9375 C31.69469407 8.15095785 31.48832282 12.87261036 31 18 C29.13695188 22.6576203 26.1215575 24.33606649 22 27 C22.33322266 27.5347998 22.66644531 28.06959961 23.00976562 28.62060547 C24.51112495 31.03590415 26.00563105 33.45537067 27.5 35.875 C28.02464844 36.71675781 28.54929687 37.55851562 29.08984375 38.42578125 C29.58613281 39.23144531 30.08242188 40.03710938 30.59375 40.8671875 C31.05458984 41.61081543 31.51542969 42.35444336 31.99023438 43.12060547 C33 45 33 45 33 47 C29.83526016 47.59363443 27.1428217 47.7845679 24 47 C21.37714888 44.2397069 19.91698848 40.98949143 18.3125 37.5625 C17.45299465 35.78346442 16.57474781 34.0133312 15.67578125 32.25390625 C15.30364502 31.46314697 14.93150879 30.6723877 14.5480957 29.85766602 C12.74851891 27.28744777 12.74851891 27.28744777 7 27 C7 33.6 7 40.2 7 47 C4.69 47 2.38 47 0 47 C0 31.49 0 15.98 0 0 Z M7 7 C7 11.29 7 15.58 7 20 C13.53757465 20.4460995 13.53757465 20.4460995 20 20 C22.50127955 17.77019485 22.50127955 17.77019485 24 15 C24.16977494 12.34872531 24.16977494 12.34872531 23 10 C20.61880984 7.66888159 19.3386784 7.03290269 15.984375 6.70703125 C14.38335937 6.75923828 14.38335937 6.75923828 12.75 6.8125 C10.8525 6.874375 8.955 6.93625 7 7 Z " fill="#999999" transform="translate(421,160)"/>
<path d="M0 0 C2.64 0 5.28 0 8 0 C8 6.27 8 12.54 8 19 C15.26 19 22.52 19 30 19 C30 12.73 30 6.46 30 0 C32.31 0 34.62 0 37 0 C37 15.51 37 31.02 37 47 C34.69 47 32.38 47 30 47 C30 40.07 30 33.14 30 26 C22.74 26 15.48 26 8 26 C8 32.93 8 39.86 8 47 C5.36 47 2.72 47 0 47 C0 31.49 0 15.98 0 0 Z " fill="#999999" transform="translate(495,160)"/>
<path d="M0 0 C9.9 0 19.8 0 30 0 C30 2.31 30 4.62 30 7 C22.41 7 14.82 7 7 7 C7 11.29 7 15.58 7 20 C13.93 20 20.86 20 28 20 C28 21.98 28 23.96 28 26 C21.07 26 14.14 26 7 26 C7 30.62 7 35.24 7 40 C14.92 40 22.84 40 31 40 C31 42.31 31 44.62 31 47 C20.77 47 10.54 47 0 47 C0 31.49 0 15.98 0 0 Z " fill="#999999" transform="translate(743,160)"/>
<path d="M0 0 C9.9 0 19.8 0 30 0 C30 2.31 30 4.62 30 7 C22.41 7 14.82 7 7 7 C7 11.29 7 15.58 7 20 C13.93 20 20.86 20 28 20 C28 21.98 28 23.96 28 26 C21.07 26 14.14 26 7 26 C7 30.62 7 35.24 7 40 C14.92 40 22.84 40 31 40 C31 42.31 31 44.62 31 47 C20.77 47 10.54 47 0 47 C0 31.49 0 15.98 0 0 Z " fill="#999999" transform="translate(542,160)"/>
<path d="M0 0 C1.16523893 2.37791762 2.14092777 4.65490359 3.0625 7.125 C3.31837891 7.77726562 3.57425781 8.42953125 3.83789062 9.1015625 C6.24729255 15.34494846 8.33074279 21.21977275 8 28 C-0.92734251 31.60226101 -11.55908929 34.14697024 -21 31 C-21.61757164 22.81717578 -19.84789858 15.8361619 -14.90625 9.1796875 C-5.32491535 -1.77497178 -5.32491535 -1.77497178 0 0 Z " fill="#1C1C1C" transform="translate(251,112)"/>
<path d="M0 0 C11.88 0 23.76 0 36 0 C36 2.31 36 4.62 36 7 C31.05 7 26.1 7 21 7 C21 20.2 21 33.4 21 47 C18.69 47 16.38 47 14 47 C14 33.8 14 20.6 14 7 C9.38 7 4.76 7 0 7 C0 4.69 0 2.38 0 0 Z " fill="#999999" transform="translate(454,160)"/>
<path d="M0 0 C0.19865739 8.89543642 0.33447255 17.32910197 -2 26 C-11.06027588 25.24497701 -17.00541338 21.67487363 -23.23046875 15.09375 C-25.69768187 12.1744868 -27.42549142 9.49130164 -29 6 C-28.67 5.01 -28.34 4.02 -28 3 C-27.36835938 3.03480469 -26.73671875 3.06960937 -26.0859375 3.10546875 C-19.06080938 3.31804467 -12.79612333 2.28756929 -5.96875 0.65625 C-3 0 -3 0 0 0 Z " fill="#999999" transform="translate(261,149)"/>
<path d="M0 0 C8.99546189 -0.50758092 17.38263677 -0.4862652 24.7265625 5.37890625 C26.125 6.75 26.125 6.75 28 9 C23.0588897 15.92082668 17.46763296 21.49535464 11 27 C10.01 26.67 9.02 26.34 8 26 C7.02333721 23.44519306 6.22550966 21.0008769 5.5 18.375 C4.3075103 14.19743932 3.12336658 10.13477977 1.34375 6.1640625 C0 3 0 3 0 0 Z " fill="#999999" transform="translate(259,108)"/>
<path d="M0 0 C2.31 0 4.62 0 7 0 C7 15.51 7 31.02 7 47 C4.69 47 2.38 47 0 47 C0 31.49 0 15.98 0 0 Z " fill="#999999" transform="translate(686,160)"/>
</svg>
