<?xml version="1.0" encoding="UTF-8"?>
<svg xmlns="http://www.w3.org/2000/svg" xmlns:xlink="http://www.w3.org/1999/xlink" version="1.1" id="Layer_1" x="0px" y="0px" width="997.58px" height="285.03px" viewBox="0 0 997.58 285.03" xml:space="preserve">
<path fill="#FFFFFF" d="M232.98,98.54c3.27-0.79,6.68-1.22,10.19-1.22c10,0,19.21,3.4,26.57,9.09c2.37-6.2,3.69-12.92,3.69-19.95  c0-30.88-25.12-56-56-56c-18.74,0-35.36,9.27-45.52,23.45C197.38,60.71,219.06,76.9,232.98,98.54"></path>
<path fill="#FFFFFF" d="M161.43,86.47c0,24.68,16.06,45.67,38.27,53.11c0.47-16.32,9.96-30.42,23.66-37.46  c-13.12-19.4-33.25-33.69-56.72-39.21C163.31,70.08,161.43,78.06,161.43,86.47"></path>
<path fill="#FFFFFF" d="M200.73,150.32c-28.33-7.42-49.29-33.23-49.29-63.85c0-8.98,1.81-17.54,5.07-25.36  c-3.77-0.46-7.6-0.7-11.48-0.7c-52.11,0-94.5,42.39-94.5,94.5s42.39,94.5,94.5,94.5c42.12,0,77.89-27.71,90.05-65.85  C218.04,180.35,204.49,167.16,200.73,150.32"></path>
<path fill="#FFFFFF" d="M209.67,140.83c0,0.37,0.02,0.73,0.03,1.09c2.53,0.35,5.11,0.54,7.73,0.54c7.3,0,14.27-1.42,20.67-3.97  c-1.74-9.87-5.01-19.22-9.57-27.79C217.37,116.15,209.67,127.61,209.67,140.83"></path>
<path fill="#FFFFFF" d="M239.52,154.91c0-2.08-0.08-4.14-0.21-6.19c-6.85,2.42-14.22,3.75-21.89,3.75c-1.94,0-3.87-0.1-5.77-0.27  c4.05,11.21,13.93,19.64,25.95,21.66C238.87,167.74,239.52,161.4,239.52,154.91"></path>
<path fill="#FFFFFF" d="M276.68,140.83c0-6.28-1.74-12.15-4.76-17.18c-5.88,8.6-13.74,15.74-22.92,20.76  c0.35,3.46,0.53,6.96,0.53,10.5c0,6.52-0.61,12.9-1.76,19.1C264.07,171.76,276.68,157.75,276.68,140.83"></path>
<path fill="#FFFFFF" d="M265.21,115.63c-5.9-5.16-13.61-8.3-22.04-8.3c-1.68,0-3.33,0.13-4.94,0.37c4.14,8.13,7.24,16.88,9.14,26.06  C254.61,129.15,260.73,122.95,265.21,115.63"></path>
<g>
	<path fill="#FFFFFF" d="M327.17,76.89h12.38l29.57,67.97h-16.9l-5.86-14.4h-26.4l-5.66,14.4h-16.51L327.17,76.89z M332.93,96.67   l-8.26,21.12h16.61L332.93,96.67z"></path>
	<path fill="#FFFFFF" d="M375.94,76.89h22.46c5.44,0,10.61,0.61,15.5,1.82c4.9,1.22,9.17,3.18,12.82,5.9   c3.65,2.72,6.54,6.26,8.69,10.61c2.14,4.35,3.21,9.63,3.21,15.84c0,5.5-1.04,10.35-3.12,14.54c-2.08,4.19-4.88,7.71-8.4,10.56   c-3.52,2.85-7.58,5.01-12.19,6.48c-4.61,1.47-9.44,2.21-14.5,2.21h-24.48V76.89z M390.91,131.04h7.78c3.46,0,6.67-0.35,9.65-1.06   c2.98-0.7,5.55-1.87,7.73-3.5c2.17-1.63,3.89-3.78,5.13-6.43s1.87-5.9,1.87-9.74c0-3.33-0.62-6.22-1.87-8.69   c-1.25-2.46-2.93-4.5-5.04-6.1c-2.11-1.6-4.59-2.8-7.44-3.6c-2.85-0.8-5.84-1.2-8.98-1.2h-8.83V131.04z"></path>
	<path fill="#FFFFFF" d="M446.88,76.89h26.3c3.46,0,6.73,0.34,9.84,1.01c3.1,0.67,5.82,1.79,8.16,3.36   c2.34,1.57,4.19,3.68,5.57,6.34c1.38,2.66,2.06,5.97,2.06,9.94c0,4.8-1.25,8.88-3.74,12.24c-2.49,3.36-6.14,5.49-10.94,6.38   l17.28,28.7h-17.95l-14.21-27.17h-7.39v27.17h-14.98V76.89z M461.86,105.02h8.83c1.34,0,2.77-0.05,4.27-0.14   c1.5-0.1,2.86-0.38,4.08-0.87c1.21-0.48,2.22-1.23,3.02-2.26c0.8-1.02,1.2-2.46,1.2-4.32c0-1.73-0.35-3.1-1.06-4.13   c-0.71-1.02-1.6-1.81-2.69-2.35c-1.09-0.54-2.34-0.91-3.74-1.1c-1.41-0.19-2.78-0.29-4.13-0.29h-9.79V105.02z"></path>
</g>
<g>
	<path fill="#FFFFFF" d="M298.71,160.1h8.06l24.96,37.25h0.13V160.1h6.14v45.31h-7.81l-25.21-37.25h-0.13v37.25h-6.14V160.1z"></path>
	<path fill="#FFFFFF" d="M369.18,206.56c-3.46,0-6.64-0.61-9.54-1.82s-5.39-2.89-7.46-5.02c-2.07-2.13-3.69-4.65-4.86-7.55   c-1.17-2.9-1.76-6.04-1.76-9.41c0-3.37,0.59-6.51,1.76-9.41c1.17-2.9,2.79-5.42,4.86-7.55c2.07-2.13,4.55-3.81,7.46-5.02   c2.9-1.22,6.08-1.82,9.54-1.82c3.46,0,6.63,0.61,9.54,1.82c2.9,1.22,5.39,2.89,7.46,5.02c2.07,2.13,3.69,4.65,4.86,7.55   c1.17,2.9,1.76,6.04,1.76,9.41c0,3.37-0.59,6.51-1.76,9.41c-1.17,2.9-2.79,5.42-4.86,7.55c-2.07,2.13-4.56,3.81-7.46,5.02   C375.81,205.96,372.63,206.56,369.18,206.56z M369.18,200.8c2.6,0,4.95-0.48,7.04-1.44s3.88-2.25,5.38-3.87   c1.49-1.62,2.64-3.53,3.46-5.73c0.81-2.2,1.22-4.53,1.22-7.01c0-2.47-0.41-4.81-1.22-7.01c-0.81-2.2-1.96-4.11-3.46-5.73   c-1.49-1.62-3.29-2.91-5.38-3.87s-4.44-1.44-7.04-1.44c-2.6,0-4.95,0.48-7.04,1.44s-3.88,2.25-5.38,3.87   c-1.49,1.62-2.65,3.53-3.46,5.73c-0.81,2.2-1.21,4.53-1.21,7.01c0,2.48,0.4,4.81,1.21,7.01c0.81,2.2,1.96,4.11,3.46,5.73   c1.49,1.62,3.29,2.91,5.38,3.87S366.57,200.8,369.18,200.8z"></path>
	<path fill="#FFFFFF" d="M400.34,160.1h15.94c2.9,0,5.29,0.39,7.17,1.18c1.88,0.79,3.36,1.79,4.45,3.01s1.84,2.58,2.27,4.1   c0.43,1.52,0.64,2.98,0.64,4.38c0,1.45-0.26,2.85-0.77,4.19c-0.51,1.34-1.25,2.56-2.21,3.65c-0.96,1.09-2.13,2.01-3.52,2.75   c-1.39,0.75-2.93,1.21-4.64,1.38l12.86,20.67h-7.68l-11.52-19.97h-6.85v19.97h-6.14V160.1z M406.49,180.07h8.06   c1.19,0,2.38-0.1,3.55-0.29c1.17-0.19,2.22-0.54,3.14-1.06c0.92-0.51,1.65-1.25,2.21-2.21c0.55-0.96,0.83-2.21,0.83-3.74   s-0.28-2.78-0.83-3.74s-1.29-1.7-2.21-2.21c-0.92-0.51-1.96-0.86-3.14-1.06c-1.17-0.19-2.36-0.29-3.55-0.29h-8.06V180.07z"></path>
	<path fill="#FFFFFF" d="M447.77,165.86h-14.59v-5.76h35.33v5.76h-14.59v39.55h-6.14V165.86z"></path>
	<path fill="#FFFFFF" d="M475.03,160.1h6.14v18.82h23.49V160.1h6.14v45.31h-6.14v-20.74h-23.49v20.74h-6.14V160.1z"></path>
	<path fill="#FFFFFF" d="M521.17,160.1h29.25v5.76h-23.1v13.5h21.5v5.76h-21.5v14.53h24.26v5.76h-30.4V160.1z"></path>
	<path fill="#FFFFFF" d="M560.28,160.1h15.94c2.9,0,5.29,0.39,7.17,1.18c1.88,0.79,3.36,1.79,4.45,3.01s1.84,2.58,2.27,4.1   c0.43,1.52,0.64,2.98,0.64,4.38c0,1.45-0.26,2.85-0.77,4.19c-0.51,1.34-1.25,2.56-2.21,3.65c-0.96,1.09-2.13,2.01-3.52,2.75   c-1.39,0.75-2.93,1.21-4.64,1.38l12.86,20.67h-7.68l-11.52-19.97h-6.85v19.97h-6.14V160.1z M566.42,180.07h8.06   c1.19,0,2.38-0.1,3.55-0.29c1.17-0.19,2.22-0.54,3.14-1.06c0.92-0.51,1.65-1.25,2.21-2.21c0.55-0.96,0.83-2.21,0.83-3.74   s-0.28-2.78-0.83-3.74s-1.29-1.7-2.21-2.21c-0.92-0.51-1.96-0.86-3.14-1.06c-1.17-0.19-2.36-0.29-3.55-0.29h-8.06V180.07z"></path>
	<path fill="#FFFFFF" d="M599.38,160.1h8.06l24.96,37.25h0.13V160.1h6.14v45.31h-7.81l-25.22-37.25h-0.13v37.25h-6.14V160.1z"></path>
	<path fill="#FFFFFF" d="M665.56,160.1h6.14v45.31h-6.14V160.1z"></path>
	<path fill="#FFFFFF" d="M683.35,160.1h15.94c2.9,0,5.29,0.39,7.17,1.18c1.88,0.79,3.36,1.79,4.45,3.01s1.84,2.58,2.27,4.1   c0.43,1.52,0.64,2.98,0.64,4.38c0,1.45-0.26,2.85-0.77,4.19c-0.51,1.34-1.25,2.56-2.21,3.65c-0.96,1.09-2.13,2.01-3.52,2.75   c-1.39,0.75-2.93,1.21-4.64,1.38l12.86,20.67h-7.68l-11.52-19.97h-6.85v19.97h-6.14V160.1z M689.49,180.07h8.06   c1.19,0,2.38-0.1,3.55-0.29c1.17-0.19,2.22-0.54,3.14-1.06c0.92-0.51,1.65-1.25,2.21-2.21c0.55-0.96,0.83-2.21,0.83-3.74   s-0.28-2.78-0.83-3.74s-1.29-1.7-2.21-2.21c-0.92-0.51-1.96-0.86-3.14-1.06c-1.17-0.19-2.36-0.29-3.55-0.29h-8.06V180.07z"></path>
	<path fill="#FFFFFF" d="M722.45,160.1h29.25v5.76h-23.1v13.5h21.5v5.76h-21.5v14.53h24.26v5.76h-30.4V160.1z"></path>
	<path fill="#FFFFFF" d="M761.55,160.1h6.14v39.55h20.8v5.76h-26.94V160.1z"></path>
	<path fill="#FFFFFF" d="M808.98,160.1h5.57l19.39,45.31h-7.17l-4.54-11.2h-21.57l-4.48,11.2h-7.17L808.98,160.1z M819.99,188.84   l-8.45-20.8h-0.13l-8.58,20.8H819.99z"></path>
	<path fill="#FFFFFF" d="M839.83,160.1h8.06l24.96,37.25h0.13V160.1h6.14v45.31h-7.81l-25.22-37.25h-0.13v37.25h-6.14V160.1z"></path>
	<path fill="#FFFFFF" d="M888.47,160.1h15.81c3.2,0,6,0.36,8.42,1.09c2.41,0.73,4.5,1.7,6.27,2.91c1.77,1.22,3.24,2.61,4.42,4.19   c1.17,1.58,2.1,3.2,2.78,4.86c0.68,1.66,1.17,3.33,1.47,4.99c0.3,1.66,0.45,3.2,0.45,4.61c0,2.9-0.53,5.71-1.6,8.42   c-1.07,2.71-2.65,5.12-4.74,7.23c-2.09,2.11-4.68,3.81-7.78,5.09s-6.67,1.92-10.72,1.92h-14.78V160.1z M894.61,199.65h7.74   c2.6,0,5.07-0.35,7.39-1.06c2.33-0.7,4.36-1.76,6.11-3.17c1.75-1.41,3.14-3.17,4.16-5.28c1.02-2.11,1.54-4.58,1.54-7.39   c0-1.45-0.23-3.15-0.7-5.09s-1.35-3.79-2.66-5.54c-1.3-1.75-3.1-3.23-5.41-4.45c-2.3-1.22-5.29-1.82-8.96-1.82h-9.22V199.65z"></path>
</g>
</svg>
